<svg width="28" height="28" viewBox="0 0 28 28" fill="none" xmlns="http://www.w3.org/2000/svg">
<rect width="28" height="28" fill="#1E1E1E"/>
<rect x="1" y="1" width="26" height="26" fill="#2B2B2B" stroke="#2B2B2B" stroke-width="2" stroke-linejoin="round"/>
<g clip-path="url(#clip0_0_1)">
<path d="M23 8H5" stroke="#757777" stroke-width="2" stroke-linecap="round" stroke-linejoin="round"/>
<path d="M12 14H5" stroke="#757777" stroke-width="2" stroke-linecap="round" stroke-linejoin="round"/>
<path d="M12 20H5" stroke="#757777" stroke-width="2" stroke-linecap="round" stroke-linejoin="round"/>
<path d="M16.26 21.32C16.18 21.32 16.1 21.2867 16.02 21.22C15.9533 21.1667 15.8933 21.0933 15.84 21C15.7867 20.92 15.7467 20.8267 15.72 20.72C15.7067 20.6133 15.72 20.52 15.76 20.44L18.08 14.76C18.32 14.1733 18.3333 13.88 18.12 13.88C17.9867 13.88 17.8467 13.9 17.7 13.94C17.5533 13.9667 17.3933 14.0467 17.22 14.18C17.0467 14.3133 16.8533 14.52 16.64 14.8C16.5867 14.8533 16.5267 14.88 16.46 14.88C16.4067 14.8667 16.3667 14.8133 16.34 14.72C16.34 14.64 16.36 14.54 16.4 14.42C16.4533 14.2867 16.5133 14.16 16.58 14.04C16.6467 13.9067 16.7067 13.8 16.76 13.72C16.96 13.4133 17.2267 13.1733 17.56 13C17.9067 12.8267 18.3067 12.7333 18.76 12.72C18.9067 12.72 19.04 12.76 19.16 12.84C19.28 12.9067 19.3667 13.0067 19.42 13.14C19.4867 13.2733 19.4867 13.42 19.42 13.58L18.1 16.98C18.06 17.0733 18.0667 17.1267 18.12 17.14C18.1867 17.1533 18.24 17.1267 18.28 17.06C18.8267 16.1267 19.38 15.34 19.94 14.7C20.5133 14.0467 21.06 13.5533 21.58 13.22C22.1 12.8867 22.56 12.72 22.96 12.72C23.24 12.72 23.48 12.82 23.68 13.02C23.8933 13.2067 24.0267 13.4667 24.08 13.8C24.1467 14.12 24.0867 14.4933 23.9 14.92L22.06 19.28C21.86 19.76 21.8933 20 22.16 20C22.32 20 22.5133 19.94 22.74 19.82C22.98 19.7 23.22 19.56 23.46 19.4C23.7 19.2267 23.9067 19.0733 24.08 18.94C24.2667 18.7933 24.3867 18.6933 24.44 18.64C24.4533 18.6267 24.46 18.62 24.46 18.62C24.4733 18.62 24.4867 18.62 24.5 18.62C24.54 18.62 24.5733 18.64 24.6 18.68C24.64 18.7067 24.66 18.7467 24.66 18.8C24.66 18.9067 24.6333 19 24.58 19.08C24.2333 19.4933 23.86 19.8667 23.46 20.2C23.0733 20.5333 22.6667 20.8 22.24 21C21.8267 21.1867 21.4067 21.28 20.98 21.28C20.86 21.28 20.74 21.2333 20.62 21.14C20.5 21.06 20.4067 20.9533 20.34 20.82C20.2867 20.6867 20.2933 20.5467 20.36 20.4C20.7467 19.5067 21.1333 18.62 21.52 17.74C21.92 16.8467 22.2933 15.9533 22.64 15.06C22.8533 14.5133 22.9267 14.1333 22.86 13.92C22.7933 13.6933 22.6667 13.5733 22.48 13.56C22.3333 13.5467 22.16 13.6 21.96 13.72C21.76 13.8267 21.5333 14 21.28 14.24C21.0267 14.4667 20.7533 14.76 20.46 15.12C20.3 15.3067 20.0867 15.6 19.82 16C19.5533 16.3867 19.2533 16.84 18.92 17.36C18.5867 17.8667 18.24 18.4133 17.88 19C17.5333 19.5733 17.2 20.14 16.88 20.7C16.76 20.9133 16.6533 21.0667 16.56 21.16C16.4667 21.2667 16.3667 21.32 16.26 21.32Z" fill="#BABABA"/>
</g>
<defs>
<clipPath id="clip0_0_1">
<rect width="24" height="24" fill="white" transform="translate(2 2)"/>
</clipPath>
</defs>
</svg>
